<?xml version="1.0" encoding="iso-8859-1"?>
<!-- Uploaded to: SVG Repo, www.svgrepo.com, Generator: SVG Repo Mixer Tools -->
<svg fill="#000000" version="1.1" id="Capa_1" xmlns="http://www.w3.org/2000/svg" xmlns:xlink="http://www.w3.org/1999/xlink" 
	 viewBox="0 0 485 485" xml:space="preserve">
<g>
	<polygon points="260.439,94.449 224.561,94.449 224.561,58.949 194.561,58.949 194.561,159.949 224.561,159.949 224.561,124.449 
		260.439,124.449 260.439,159.949 290.439,159.949 290.439,58.949 260.439,58.949 	"/>
	<path d="M361.501,129.842V0h-236.94v129.842H0V485h485V129.842H361.501z M331.501,455h-25v-85.158h25V455z M276.501,455h-66.94
		v-85.158h66.94V455z M179.561,455h-25v-85.158h25V455z M455,455h-93.499V339.842h-236.94V455H30V159.842h124.561V30h176.94v129.842
		H455V455z"/>
	<rect x="65" y="199.842" width="50" height="30"/>
	<rect x="141.25" y="199.842" width="50" height="30"/>
	<rect x="217.5" y="199.842" width="50" height="30"/>
	<rect x="293.75" y="199.842" width="50" height="30"/>
	<rect x="370" y="199.842" width="50" height="30"/>
	<rect x="65" y="269.842" width="50" height="30"/>
	<rect x="141.25" y="269.842" width="50" height="30"/>
	<rect x="217.5" y="269.842" width="50" height="30"/>
	<rect x="293.75" y="269.842" width="50" height="30"/>
	<rect x="370" y="269.842" width="50" height="30"/>
</g>
</svg>