<?xml version="1.0" encoding="utf-8"?>
<!-- Uploaded to: SVG Repo, www.svgrepo.com, Generator: SVG Repo Mixer Tools -->
<svg width="30px" height="30px" viewBox="0 0 1024 1024" class="icon"  version="1.1" xmlns="http://www.w3.org/2000/svg"><path d="M895.36 243.904a251.52 251.52 0 0 0-355.776 0l-20.096 20.096-20.096-20.096A251.52 251.52 0 0 0 143.616 599.68S466.24 926.72 512 928c14.336 0.384 86.4-59.52 164.224-128.192l-0.512-0.64a22.016 22.016 0 0 0-11.968-40.896 21.76 21.76 0 0 0-14.784 5.888l-0.064-0.064 62.336-56.832a22.08 22.08 0 0 0-7.808 16.704 22.4 22.4 0 0 0 22.4 22.464c5.44 0 10.24-2.176 14.208-5.44l0.256 0.32 50.048-45.76-0.448-0.448a22.08 22.08 0 0 0-16.768-36.992 21.952 21.952 0 0 0-14.656 5.824l80.384-73.472 0.512 0.512a22.08 22.08 0 0 0-5.696 14.592 22.4 22.4 0 0 0 22.4 22.464 22.016 22.016 0 0 0 14.272-5.504l0.32 0.384 24.832-23.168a251.776 251.776 0 0 0-0.128-355.84z" fill="" /><path d="M510.976 878.656c-51.008-33.344-207.168-180.416-335.488-310.528a206.976 206.976 0 0 1-0.192-292.544c39.04-39.104 91.008-60.608 146.24-60.608s107.136 21.504 146.176 60.544l51.84 51.84 51.84-51.776c39.04-39.04 90.944-60.544 146.176-60.544s107.2 21.504 146.176 60.544c39.04 39.04 60.544 90.944 60.544 146.24s-21.504 107.136-60.544 146.176c-140.096 131.776-301.76 276.032-352.768 310.656z" fill="#FF5F5F" /></svg>